<svg width="32" height="33" xmlns="http://www.w3.org/2000/svg">
    <path d="M13.009 6.188a3.497 3.497 0 0 1 2.99-1.688c1.222 0 2.355.638 2.991 1.688l9.875 16.485a3.494 3.494 0 0 1-3 5.241H6.12a3.494 3.494 0 0 1-2.978-5.257l9.866-16.47zM5.15 23.838a1.165 1.165 0 0 0 .983 1.747h19.718a1.165 1.165 0 0 0 1.005-1.731L16.995 7.39a1.165 1.165 0 0 0-1.99-.002l-9.854 16.45zm9.684-11.065a1.165 1.165 0 0 1 2.33 0v4.659a1.165 1.165 0 0 1-2.33 0v-4.66zm1.164 6.988a1.165 1.165 0 1 1 0 2.33 1.165 1.165 0 0 1 0-2.33z" fill="#D70015" fill-rule="evenodd"/>
</svg>
