<svg width="390" height="386" xmlns="http://www.w3.org/2000/svg" xmlns:xlink="http://www.w3.org/1999/xlink">
    <defs>
        <path id="a" d="M0 0h390v385.012H0z"/>
    </defs>
    <g transform="translate(0 .988)" fill="none" fill-rule="evenodd" opacity=".7">
        <mask id="b" fill="#fff">
            <use xlink:href="#a"/>
        </mask>
        <path d="M2.632 385.012c-213.935 0-387.367-173.242-387.367-386.943S-211.303-388.875 2.632-388.875C216.572-388.875 390-215.632 390-1.93c0 213.7-173.428 386.943-387.368 386.943z" stroke="#CCDBE7" stroke-width="2" mask="url(#b)"/>
        <path d="M2.632 357.052c-198.476 0-359.376-160.72-359.376-358.983s160.9-358.983 359.376-358.983c198.48 0 359.377 160.72 359.377 358.983 0 198.262-160.897 358.983-359.377 358.983z" stroke="#CCDBE7" stroke-width="2" mask="url(#b)"/>
        <path d="M2.632 329.091c-183.02 0-331.385-148.202-331.385-331.022S-180.388-332.958 2.632-332.958c183.021 0 331.39 148.207 331.39 331.027S185.653 329.09 2.632 329.09z" stroke="#CCDBE7" stroke-width="2" mask="url(#b)"/>
        <path d="M2.632 301.135c-167.56 0-303.398-135.689-303.398-303.066 0-167.378 135.837-303.066 303.398-303.066 167.562 0 303.399 135.688 303.399 303.066 0 167.377-135.837 303.066-303.399 303.066z" stroke="#CCDBE7" stroke-width="2" mask="url(#b)"/>
        <path d="M2.632 273.174c-152.101 0-275.407-123.17-275.407-275.105 0-151.936 123.306-275.106 275.407-275.106 152.106 0 275.408 123.17 275.408 275.106 0 151.935-123.302 275.105-275.408 275.105z" stroke="#CCDBE7" stroke-width="2" mask="url(#b)"/>
        <path d="M2.632 245.214c-136.642 0-247.416-110.648-247.416-247.145s110.774-247.15 247.416-247.15c136.647 0 247.42 110.653 247.42 247.15S139.28 245.214 2.633 245.214z" stroke="#CCDBE7" stroke-width="2" mask="url(#b)"/>
        <path d="M2.632 217.257c-121.187 0-219.429-98.134-219.429-219.188 0-121.055 98.242-219.189 219.43-219.189 121.187 0 219.428 98.134 219.428 219.189 0 121.054-98.241 219.188-219.429 219.188z" stroke="#CCDBE7" stroke-width="2" mask="url(#b)"/>
        <path d="M2.632 189.297c-105.727 0-191.438-85.616-191.438-191.228 0-105.612 85.71-191.229 191.438-191.229S194.07-107.543 194.07-1.93c0 105.612-85.71 191.228-191.438 191.228z" stroke="#CCDBE7" stroke-width="2" mask="url(#b)"/>
        <path d="M2.632 161.337c-90.268 0-163.446-73.099-163.446-163.268 0-90.174 73.178-163.272 163.446-163.272 90.273 0 163.451 73.098 163.451 163.272 0 90.17-73.178 163.268-163.45 163.268z" stroke="#CCDBE7" stroke-width="2" mask="url(#b)"/>
        <path d="M2.632 133.38c-74.809 0-135.46-60.58-135.46-135.311 0-74.731 60.651-135.312 135.46-135.312 74.814 0 135.46 60.58 135.46 135.312 0 74.73-60.646 135.311-135.46 135.311z" stroke="#CCDBE7" stroke-width="2" mask="url(#b)"/>
        <path d="M2.632 105.42c-59.353 0-107.468-48.062-107.468-107.351 0-59.29 48.115-107.351 107.468-107.351 59.354 0 107.47 48.062 107.47 107.35 0 59.29-48.116 107.352-107.47 107.352z" stroke="#CCDBE7" stroke-width="2" mask="url(#b)"/>
        <path d="M2.632 77.46c-43.894 0-79.477-35.545-79.477-79.391 0-43.847 35.583-79.395 79.477-79.395 43.895 0 79.482 35.548 79.482 79.395 0 43.846-35.587 79.39-79.482 79.39z" stroke="#CCDBE7" stroke-width="2" mask="url(#b)"/>
        <path d="M2.632 49.503c-28.435 0-51.49-23.03-51.49-51.434 0-28.408 23.055-51.434 51.49-51.434 28.44 0 51.491 23.026 51.491 51.434 0 28.404-23.052 51.434-51.49 51.434z" stroke="#CCDBE7" stroke-width="2" mask="url(#b)"/>
        <path d="M2.632 21.542c-12.975 0-23.499-10.508-23.499-23.473 0-12.966 10.524-23.474 23.5-23.474 12.98 0 23.499 10.508 23.499 23.474 0 12.965-10.52 23.473-23.5 23.473z" stroke="#CCDBE7" stroke-width="2" mask="url(#b)"/>
    </g>
</svg>
