<svg width="91" height="113" xmlns="http://www.w3.org/2000/svg">
    <g fill="#FFF" fill-rule="nonzero">
        <path d="M81.177 94.082v-.07c2.54-.52 4.455-1.447 5.745-2.78a7.199 7.199 0 0 0 2.229-5.143c0-5.32-4.508-7.98-13.014-7.98h-16.31v1.975c1.905.45 3.81 1.943 3.81 4.095v22.727h7.986v-11.7h2.73a7.428 7.428 0 0 1 5.669 2.285c1.329 1.435 1.993 3.447 1.993 6.037 0 4.698-3.39 7.25-6.348 7.25H59.644c-2.229 0-3.092-.47-3.74-1.327a9.573 9.573 0 0 1-1.606-3.98l-.47-2.203c-.456-2.45-1.148-4.262-2.075-5.434-.927-1.172-2.474-1.968-4.64-2.387v-.108a11.713 11.713 0 0 0 6.227-2.806 7.618 7.618 0 0 0 2.361-5.91c0-5.671-4.253-8.505-12.76-8.5H.014v11.191h1.962c.634-10.195 9.344-9.167 9.344-9.167v32.624h7.98V80.084h21.038c2.603.05 4.743.686 5.714 1.79.971 1.105 1.606 2.984 1.606 5.434s-.565 4.368-1.682 5.536c-1.118 1.168-2.87 1.746-5.25 1.746h-2.12V83.963h-7.98v28.808h7.98V96.596h2.469c1.27 0 2.279.228 2.965.895a6.488 6.488 0 0 1 1.44 3.206l1.575 7.243c.222 1.014.557 2 .997 2.94.425.876 1.27 1.904 3.307 1.904h25.355c9.1 0 13.65-3.098 13.65-9.294 0-5.214-3.063-8.346-9.187-9.395m-1.81-2.54c-1.174 1.156-2.881 1.645-5.122 1.645h-2.622V81.506c-.04-.394.14-.777.47-.997.317-.26 1.054-.393 2.209-.393 4.545 0 6.82 2.152 6.824 6.456 0 2.171-.59 3.809-1.758 4.99M45.189 0C25.853 0 10.178 15.675 10.178 35.011c0 19.336 15.675 35.01 35.01 35.01 19.337 0 35.012-15.674 35.012-35.01A35.011 35.011 0 0 0 45.189 0m3.072 59.782a28.447 28.447 0 1 1 28.44-28.447c0 15.709-12.732 28.444-28.44 28.447"/>
        <path d="m35.996 20.416-1.701-6.158a.658.658 0 1 1 1.27-.342l.526 1.967a.673.673 0 0 0 .635.496h5.219a3.327 3.327 0 0 1 3.225 2.495l2.755 10.544a.133.133 0 0 0 .254 0l2.742-10.38a3.561 3.561 0 0 1 3.41-2.672h9.3a.673.673 0 0 0 .634-.495l.527-1.962a.657.657 0 0 1 1.27.337l-1.682 6.348a3.358 3.358 0 0 1-3.175 2.362h-9.433a.635.635 0 0 0-.635.501l-1.79 6.856a.673.673 0 0 0 .635.838h2.45a.667.667 0 0 0 .635-.831l-1.359-5.282a.635.635 0 0 1 .635-.832h3.11a2.279 2.279 0 0 1 2.35 1.606l.863 3.301c.635 2.457-1.32 2.711-1.32 2.711a3.587 3.587 0 0 1 4.075 2.762l1.905 6.926c.444 1.491-.438 2.926-2.159 2.539L47.975 40.75a.667.667 0 0 0-.806.476l-1.27 4.755c-.685 2.54-3.174 1.866-3.174 1.866l-9.141-2.145a.651.651 0 0 1 .292-1.27l4.526 1.047a.635.635 0 0 0 .794-.482l1.27-4.806s.526-2.54 3.396-1.746l11.071 2.692a.635.635 0 0 0 .806-.813l-1.904-7.37a.635.635 0 0 0-.635-.501h-5.237a.667.667 0 0 1-.635-.496l-2.241-8.411a.133.133 0 0 0-.26 0l-3.225 12.576v.057c-.051.286-.546 2.762-3.524 2.095l-4.996-1.213a.667.667 0 0 0-.793.458l-1.359 4.437a.635.635 0 0 1-.787.45h-.032a.635.635 0 0 1-.482-.837l2.57-8.57a2.628 2.628 0 0 1 3.302-1.95l5.123 1.27a.673.673 0 0 0 .806-.52l2.032-8.037a.667.667 0 0 0-.635-.832h-3.51a3.288 3.288 0 0 1-3.32-2.54"/>
    </g>
</svg>
