<svg width="48" height="48" xmlns="http://www.w3.org/2000/svg">
    <path d="M22.17 7.661h-9.017a5.492 5.492 0 0 0-5.492 5.492v9.558h.947a1.83 1.83 0 1 1 0 3.66h-.947v8.476a5.492 5.492 0 0 0 5.492 5.492h9.016v-.947a1.83 1.83 0 0 1 3.662 0v.947h9.016a5.492 5.492 0 0 0 5.492-5.492v-8.475h-.947a1.83 1.83 0 0 1 0-3.661h.947v-9.558a5.492 5.492 0 0 0-5.492-5.492h-9.016v.947a1.83 1.83 0 0 1-3.662 0v-.947zM13.152 4h21.694A9.153 9.153 0 0 1 44 13.153v21.694A9.153 9.153 0 0 1 34.847 44H13.153A9.153 9.153 0 0 1 4 34.847V13.153A9.153 9.153 0 0 1 13.153 4zm15.65 13.217a1.83 1.83 0 0 1 2.532 2.645l-6.618 6.332a1.83 1.83 0 0 1-1.264.508l-4.741.004a1.83 1.83 0 0 1-.004-3.66l4.008-.005 6.088-5.824z" fill="#FFF" fill-rule="evenodd"/>
</svg>
