<svg width="390" height="386" xmlns="http://www.w3.org/2000/svg" xmlns:xlink="http://www.w3.org/1999/xlink">
    <defs>
        <path id="a" d="M0 0h390v385.05H0z"/>
    </defs>
    <g transform="matrix(1 0 0 -1 0 385.05)" fill="none" fill-rule="evenodd">
        <mask id="b" fill="#fff">
            <use xlink:href="#a"/>
        </mask>
        <path d="M2.632 385.05c-213.935 0-387.367-173.259-387.367-386.981 0-213.723 173.432-386.983 387.367-386.983C216.572-388.914 390-215.654 390-1.93 390 211.79 216.572 385.05 2.632 385.05z" stroke="#D1E2EA" stroke-width="2" mask="url(#b)"/>
        <path d="M2.632 357.088c-198.476 0-359.376-160.737-359.376-359.02 0-198.282 160.9-359.018 359.376-359.018 198.48 0 359.377 160.736 359.377 359.019 0 198.282-160.897 359.019-359.377 359.019z" stroke="#D1E2EA" stroke-width="2" mask="url(#b)"/>
        <path d="M2.632 329.124c-183.02 0-331.385-148.217-331.385-331.055 0-182.839 148.365-331.06 331.385-331.06 183.021 0 331.39 148.221 331.39 331.06 0 182.838-148.369 331.055-331.39 331.055z" stroke="#D1E2EA" stroke-width="2" mask="url(#b)"/>
        <path d="M2.632 301.165c-167.56 0-303.398-135.702-303.398-303.096 0-167.395 135.837-303.097 303.398-303.097 167.562 0 303.399 135.702 303.399 303.097 0 167.394-135.837 303.096-303.399 303.096z" stroke="#D1E2EA" stroke-width="2" mask="url(#b)"/>
        <path d="M2.632 273.202c-152.101 0-275.407-123.183-275.407-275.133 0-151.951 123.306-275.134 275.407-275.134 152.106 0 275.408 123.183 275.408 275.134 0 151.95-123.302 275.133-275.408 275.133z" stroke="#D1E2EA" stroke-width="2" mask="url(#b)"/>
        <path d="M2.632 245.239c-136.642 0-247.416-110.66-247.416-247.17 0-136.511 110.774-247.174 247.416-247.174 136.647 0 247.42 110.663 247.42 247.174 0 136.51-110.773 247.17-247.42 247.17z" stroke="#D1E2EA" stroke-width="2" mask="url(#b)"/>
        <path d="M2.632 217.28c-121.187 0-219.429-98.145-219.429-219.211 0-121.067 98.242-219.211 219.43-219.211 121.187 0 219.428 98.144 219.428 219.21 0 121.067-98.241 219.211-219.429 219.211z" stroke="#D1E2EA" stroke-width="2" mask="url(#b)"/>
        <path d="M2.632 189.316c-105.727 0-191.438-85.625-191.438-191.247 0-105.623 85.71-191.248 191.438-191.248S194.07-107.554 194.07-1.931c0 105.622-85.71 191.247-191.438 191.247z" stroke="#D1E2EA" stroke-width="2" mask="url(#b)"/>
        <path d="M2.632 161.353c-90.268 0-163.446-73.106-163.446-163.284 0-90.183 73.178-163.289 163.446-163.289 90.273 0 163.451 73.106 163.451 163.289 0 90.178-73.178 163.284-163.45 163.284z" stroke="#D1E2EA" stroke-width="2" mask="url(#b)"/>
        <path d="M2.632 133.394c-74.809 0-135.46-60.587-135.46-135.325 0-74.74 60.651-135.326 135.46-135.326 74.814 0 135.46 60.587 135.46 135.326 0 74.738-60.646 135.325-135.46 135.325z" stroke="#D1E2EA" stroke-width="2" mask="url(#b)"/>
        <path d="M2.632 105.43c-59.353 0-107.468-48.067-107.468-107.361 0-59.295 48.115-107.362 107.468-107.362 59.354 0 107.47 48.067 107.47 107.362 0 59.294-48.116 107.361-107.47 107.361z" stroke="#D1E2EA" stroke-width="2" mask="url(#b)"/>
        <path d="M2.632 77.467c-43.894 0-79.477-35.548-79.477-79.398 0-43.851 35.583-79.403 79.477-79.403 43.895 0 79.482 35.552 79.482 79.403 0 43.85-35.587 79.398-79.482 79.398z" stroke="#D1E2EA" stroke-width="2" mask="url(#b)"/>
        <path d="M2.632 49.508c-28.435 0-51.49-23.033-51.49-51.44 0-28.41 23.055-51.439 51.49-51.439 28.44 0 51.491 23.029 51.491 51.44 0 28.406-23.052 51.439-51.49 51.439z" stroke="#D1E2EA" stroke-width="2" mask="url(#b)"/>
        <path d="M2.632 21.545c-12.975 0-23.499-10.51-23.499-23.476 0-12.967 10.524-23.477 23.5-23.477 12.98 0 23.499 10.51 23.499 23.477 0 12.966-10.52 23.476-23.5 23.476z" stroke="#D1E2EA" stroke-width="2" mask="url(#b)"/>
    </g>
</svg>
