<svg width="21" height="20" xmlns="http://www.w3.org/2000/svg" xmlns:xlink="http://www.w3.org/1999/xlink">
    <defs>
        <path d="M8.611 2.5v1.667H5.556c-.768 0-1.39.621-1.39 1.389v8.888c0 .768.622 1.39 1.39 1.39h8.888c.768 0 1.39-.622 1.39-1.39V11.39H17.5v3.055a3.056 3.056 0 0 1-3.056 3.056H5.556A3.056 3.056 0 0 1 2.5 14.444V5.556A3.056 3.056 0 0 1 5.556 2.5H8.61zm8.056 0c.46 0 .833.373.833.833v5.278h-1.667V5.344l-6.389 6.39-1.177-1.178 6.389-6.39h-3.267V2.5z" id="a"/>
    </defs>
    <g transform="translate(.5)" fill="none" fill-rule="evenodd">
        <use fill="#FFF" xlink:href="#a"/>
        <use fill-opacity=".7" fill="#004B87" xlink:href="#a"/>
    </g>
</svg>
