<svg width="48" height="48" xmlns="http://www.w3.org/2000/svg">
    <path d="M4.142 29.708a4.169 4.169 0 0 0 .417 3.162l2.78 4.815a4.169 4.169 0 0 0 5.697 1.528l4.016-2.334v4.641a4.169 4.169 0 0 0 4.169 4.169h5.558a4.169 4.169 0 0 0 4.17-4.169V36.88l4.015 2.32a4.169 4.169 0 0 0 5.698-1.528l2.779-4.815a4.169 4.169 0 0 0-1.529-5.698l-4.016-2.313 4.016-2.321a4.169 4.169 0 0 0 1.529-5.698l-2.78-4.815a4.169 4.169 0 0 0-5.697-1.528l-4.016 2.327V8.17A4.169 4.169 0 0 0 26.78 4h-5.558a4.169 4.169 0 0 0-4.17 4.169v4.641l-4.015-2.32a4.169 4.169 0 0 0-5.698 1.528L4.56 16.833a4.169 4.169 0 0 0 1.529 5.698l4.016 2.314-4.016 2.32a4.169 4.169 0 0 0-1.946 2.543zm14.3-4.863L8.171 18.91l2.78-4.815 10.269 5.933V8.17h5.558v11.86l10.27-5.933 2.779 4.815-10.27 5.934 10.27 5.933-2.78 4.815L26.78 29.66v11.86h-5.558V29.66l-10.27 5.926-2.779-4.815 10.27-5.926z" fill="#FFF" fill-rule="evenodd"/>
</svg>
