<svg width="162" height="56" xmlns="http://www.w3.org/2000/svg" xmlns:xlink="http://www.w3.org/1999/xlink">
    <defs>
        <path d="M55.998 27.998C55.998 43.463 43.461 56 27.996 56 12.73 56 .317 43.784 0 28.594v-1.193C.314 12.377 12.462.261 27.5 0h.992C43.73.265 55.998 12.698 55.998 27.998z" id="a"/>
        <path d="M27.447 0c15.158 0 27.446 12.288 27.446 27.447 0 15.158-12.288 27.446-27.446 27.446C12.288 54.893 0 42.605 0 27.447 0 12.288 12.288 0 27.447 0z" id="c"/>
        <path d="M25.248 0c13.944 0 25.248 11.304 25.248 25.248S39.192 50.496 25.248 50.496 0 39.192 0 25.248 11.304 0 25.248 0z" id="e"/>
        <path d="M0 .891V12.74a4.86 4.86 0 0 0 4.883 4.837h17.299c.486 0 .88-.394.89-.88V4.837A4.86 4.86 0 0 0 18.19 0H.89A.907.907 0 0 0 0 .891zm24.16 4.628L31.3.301c.625-.51 1.1-.394 1.1.544v15.91c0 1.053-.59.937-1.1.544l-7.14-5.219V5.52z" id="g"/>
    </defs>
    <g fill="none" fill-rule="evenodd">
        <path d="M100.165 32.65a6.593 6.593 0 0 1-9.315-.012 6.6 6.6 0 0 1 0-9.303c2.57-2.58 6.735-2.58 9.315-.012l.012.012c2.58 2.568 2.568 6.746-.012 9.314zm-4.64-15.633h-.011c-6.064 0-10.97 4.918-10.97 10.97 0 6.063 4.906 10.98 10.97 10.98 6.063 0 10.98-4.906 10.98-10.97 0-6.062-4.906-10.98-10.969-10.98z" fill="#4A8CFF"/>
        <path d="m82.346 34.64-1.1-.058h-9.881l13.18-13.18-.059-1.099a3.327 3.327 0 0 0-3.24-3.24l-1.099-.058H63.681l.058 1.1a3.403 3.403 0 0 0 3.24 3.24l1.1.057h9.881l-13.18 13.18.058 1.1a3.36 3.36 0 0 0 3.24 3.239l1.1.058h16.465l-.058-1.1c-.15-1.816-1.434-3.135-3.24-3.24M152.617 17.017a8.787 8.787 0 0 0-6.584 2.974 8.777 8.777 0 0 0-11.502-1.47c-.844-.96-2.765-1.504-3.864-1.504v21.962l1.099-.058c1.828-.116 3.17-1.412 3.24-3.24l.058-1.1V26.9l.058-1.1c0-.763.196-1.515.543-2.198 1.204-2.095 3.888-2.812 5.994-1.597.66.382 1.215.937 1.597 1.597h-.012a4.72 4.72 0 0 1 .544 2.198l.058 1.1v7.683l.058 1.1a3.367 3.367 0 0 0 3.228 3.239l1.1.058v-12.08l.057-1.1c0-.775.186-1.527.544-2.21a4.387 4.387 0 0 1 6.006-1.585c.66.382 1.215.937 1.597 1.597.347.683.532 1.435.532 2.198l.058 1.1v7.683l.058 1.1a3.358 3.358 0 0 0 3.228 3.239l1.1.058v-13.18c-.012-4.848-3.947-8.782-8.795-8.782M123.226 32.65a6.593 6.593 0 0 1-9.314-.012 6.6 6.6 0 0 1 0-9.303c2.568-2.58 6.734-2.58 9.314-.012l.012.012c2.58 2.568 2.569 6.746-.012 9.314zm3.113-12.416a10.973 10.973 0 0 0-7.764-3.217 10.973 10.973 0 0 0-7.764 3.217c-4.282 4.293-4.282 11.247.011 15.528 4.293 4.281 11.247 4.281 15.529-.011 4.293-4.282 4.28-11.236-.012-15.517z" fill="#4A8CFF"/>
        <g>
            <mask id="b" fill="#fff">
                <use xlink:href="#a"/>
            </mask>
            <path fill="#E5E5E4" mask="url(#b)" d="M0 56h56V0H0z"/>
        </g>
        <g transform="translate(.55 .551)">
            <mask id="d" fill="#fff">
                <use xlink:href="#c"/>
            </mask>
            <path fill="#FFF" mask="url(#d)" d="M0 54.893h54.893V0H0z"/>
        </g>
        <g transform="translate(2.748 2.75)">
            <mask id="f" fill="#fff">
                <use xlink:href="#e"/>
            </mask>
            <path fill="#4A8CFF" mask="url(#f)" d="M0 50.496h50.496V0H0z"/>
        </g>
        <g transform="translate(11.519 19.204)">
            <mask id="h" fill="#fff">
                <use xlink:href="#g"/>
            </mask>
            <path fill="#FFF" mask="url(#h)" d="M0 17.808h32.4V-.208H0z"/>
        </g>
    </g>
</svg>
